<svg width="21" height="19" viewBox="0 0 21 19" fill="none" xmlns="http://www.w3.org/2000/svg">
<path d="M15.0557 13.8471L19.0557 9.84714M19.0557 9.84714L15.0557 5.84714M19.0557 9.84714H5.05566M11.0557 13.8471V14.8471C11.0557 15.6428 10.7396 16.4058 10.177 16.9685C9.61438 17.5311 8.85131 17.8471 8.05566 17.8471H4.05566C3.26001 17.8471 2.49695 17.5311 1.93434 16.9685C1.37173 16.4058 1.05566 15.6428 1.05566 14.8471V4.84714C1.05566 4.05149 1.37173 3.28843 1.93434 2.72582C2.49695 2.16321 3.26001 1.84714 4.05566 1.84714H8.05566C8.85131 1.84714 9.61438 2.16321 10.177 2.72582C10.7396 3.28843 11.0557 4.05149 11.0557 4.84714V5.84714" stroke="black" stroke-opacity="0.25" stroke-width="2" stroke-linecap="round" stroke-linejoin="round"/>
</svg>
